/* XPM */
static char *_d7e57ccc2554325d7678f68011ac05faKsrsAJ241j6Uy0s[] = {
/* columns rows colors chars-per-pixel */
"50 50 55 1 ",
"  c None",
". c #9A0000",
"X c #9B0000",
"o c #9C0000",
"O c #9E0000",
"+ c #A60000",
"@ c #A70000",
"# c #A80000",
"$ c #A90000",
"% c #AA0000",
"& c #AD0000",
"* c #AE0000",
"= c #B70000",
"- c #B80000",
"; c #BC0000",
": c #BD0000",
"> c #BE0000",
", c #BF0000",
"< c #C00000",
"1 c #C10000",
"2 c #CF0000",
"3 c #D00000",
"4 c #D10000",
"5 c #D20000",
"6 c #D30000",
"7 c #D40000",
"8 c #D50000",
"9 c #D60000",
"0 c #D70000",
"q c #DE0000",
"w c #DF0000",
"e c #E10000",
"r c #E20000",
"t c #E30000",
"y c #E40000",
"u c #E50000",
"i c #E60000",
"p c #E70000",
"a c #E80000",
"s c #E90000",
"d c #EA0000",
"f c #EB0000",
"g c #EC0000",
"h c #ED0000",
"j c #EE0000",
"k c #EF0000",
"l c #F00000",
"z c #F10000",
"x c #F20000",
"c c #F30000",
"v c #F40000",
"b c #F50000",
"n c #F60000",
"m c #F70000",
"M c #F80000",
/* pixels */
"                                                  ",
"                                                  ",
"                                                  ",
"                     O*-,--*O                     ",
"                  ,5wyysssysrw5<                  ",
"               @5rsysysyyysyyssyr5%               ",
"             O5rysyssysssssssysyssy9O             ",
"            ,rsssyssssssssssssssysyyr,            ",
"           5ysyyssgsgsggggsgsssssssyys5           ",
"          9ysysssssgggggggggggsgsssssyy9          ",
"         9yssssssggggggggggllggggsssssys9         ",
"        2syssgsggggggggggggggggggggssssyy2        ",
"       ,ysssssgggggggglglglgggggglgggssysy<       ",
"      OrsysssggggggllllllllllllggggggsgsysrO      ",
"      5sysssgggggglllllllllllllggggggsgssyy5      ",
"     @yyssssggggllllllllblblllllllggggssssyy@     ",
"     5yssssggggglllllbllbllblllllllggggsssys5     ",
"     rssssglggllllllbbbbbbbbbbbllllgggggssysr     ",
"    <yyssgggggllllbbblbbMbbbbblblllllgggsgsyy,    ",
"    9syssgggglllbllbbMMMMMMMbblbllllgglgsssss5    ",
"    rysssggggllllblbMMMMMMMMMMbbbllllgglgsssyr    ",
"   OyssssggggllllbbMMMMMMMMMMMMlbllllgggggsyyrX   ",
"   *yysgggggglllbbbMMMMMMMMMMMMblblllggggsgssy*   ",
"   =sysssggllllllbMMMMMMMMMMMMMbbbllllgggsssys-   ",
"   ,yysssggglllblbMMMMMMMMMMMMMMblblllglgggyyy,   ",
"   ,ysssggggllllbbbMMMMMMMMMMMMMbllllggggssssy,   ",
"   -sssggglglllbblMMMMMMMMMMMMMbbbblllgggsssys=   ",
"   *yyssggggglllbbbMMMMMMMMMMMMblblllggggssssy*   ",
"   OyssssggggllllbbbMMMMMMMMMMbbbllllgggggsssyO   ",
"    wysssgggglllblbbMMMMMMMMMMbblblllgglgssyyw    ",
"    5syssglgglllllblbbMMMMMMbblbbllglggggssss5    ",
"    ,sysgsggggllllbbbbbMbMMbbblbllllggggsssyy,    ",
"     rsysggggglllllbblbbbblbblbllllgggggsssyy     ",
"     5yssssggggglllllblblblbblllllggggggssys5     ",
"     %yssssggggggllllllbblblllllllggggsssssy%     ",
"      5yyssgglggglllllllllllllllggglggsssyy5      ",
"      XryssssggggglglllllllllllggggggsssysrX      ",
"       ,ysysgsgggggggggllgglggggggggsgsssy<       ",
"        5syssgsggggggggggggggglgggsssssyy5        ",
"         9syssssgggglggggglgggggggssssys9         ",
"          9ysyssgssgggggggggggssssssyss9          ",
"           5ysysssgssssgggsggssssssysy2           ",
"            ,rsssyysssssssssssssysysr,            ",
"             O5yyssssssssssysssysyy5X             ",
"               %5ryysyysssyyysssr5%               ",
"                  ,9wysyysssrw9-                  ",
"                     O*--,-*O                     ",
"                                                  ",
"                                                  ",
"                                                  "
};
